<svg xmlns="http://www.w3.org/2000/svg" width="314" viewBox="0 0 235.5 29.25" height="39" version="1.0"><defs><clipPath id="a"><path d="M106.781 8.633h3.813v18.762h-3.813Zm0 0"/></clipPath><clipPath id="b"><path d="M139.89 9.004h26.528v18.39h-26.527Zm0 0"/></clipPath><clipPath id="c"><path d="M155.05 27.387h-3.835v-1.63L151.203 14c0-1.605-.05-1.648-1.605-1.66l-7.989-.024c-.52 0-1.035-.043-1.476-.062-.125-.2-.211-.277-.219-.36-.184-1.925.68-2.886 2.594-2.89h22.504c.425 0 .847.043 1.379.074v3.164c-.578.031-1.094.07-1.614.07l-7.984.016c-1.574.012-1.652.082-1.652 1.64l-.004 11.907c0 .477-.051.945-.086 1.52Zm0 0"/></clipPath><clipPath id="d"><path d="M50.414 9.004h25.121v19.195h-25.12Zm0 0"/></clipPath><clipPath id="e"><path d="M50.766 26.809c.172-1 .324-1.883.5-2.93 1.656.258 3.168.52 4.687.715 4.195.55 8.395 1.008 12.629.476a10.558 10.558 0 0 0 1.7-.375c.87-.261 1.413-.832 1.437-1.789.027-1.035-.442-1.84-1.422-2.136-.828-.247-1.703-.375-2.57-.442-3.196-.246-6.399-.39-9.586-.676-1.54-.14-3.094-.359-4.563-.804-2.203-.668-3.066-1.95-3.098-4.051-.039-2.399.81-3.93 3.012-4.59 1.98-.594 4.063-1.02 6.125-1.133 4.953-.265 9.871.227 14.93 1.239-.2.937-.39 1.804-.602 2.785-.558-.063-1.03-.13-1.5-.168-3.433-.293-6.855-.66-10.297-.836-1.878-.094-3.777.117-5.664.258a3.378 3.378 0 0 0-1.5.48c-1.195.75-1.117 2.766.215 3.18 1.504.46 3.121.617 4.703.781 3.524.352 7.059.613 10.582.945.567.055 1.13.258 1.688.418 2.933.852 3.629 3.782 3.191 5.922-.445 2.184-2.113 3.027-4.062 3.453-3.84.824-7.73.742-11.614.508-2.273-.133-4.535-.5-6.792-.785-.66-.082-1.31-.266-2.122-.442Zm0 0"/></clipPath><clipPath id="f"><path d="M78.113 8.633h25.028V27.82H78.113Zm0 0"/></clipPath><clipPath id="g"><path d="M78.535 26.363c.156-.933.3-1.812.48-2.886 1.579.242 3.032.496 4.497.695 4.226.574 8.46 1.031 12.73.52a9.48 9.48 0 0 0 1.555-.329c1.172-.36 1.566-.875 1.555-1.965-.012-1.12-.508-1.843-1.63-2.101-.89-.207-1.816-.293-2.73-.363-3.035-.227-6.086-.348-9.117-.66-1.715-.18-3.488-.43-5.082-1.044-2.781-1.07-3.543-4.777-1.594-7.043.996-1.16 2.406-1.601 3.836-1.898a32.978 32.978 0 0 1 9.102-.562c3.082.23 6.14.714 9.21 1.085.184.024.368.098.723.192-.148.902-.3 1.773-.465 2.77-.789-.106-1.449-.18-2.109-.278-4.512-.703-9.055-.902-13.61-.7-.82.04-1.64.169-2.437.36-.855.207-1.472.711-1.531 1.696-.055.957.312 1.742 1.34 1.972 1.492.34 3.047.465 4.578.614 3.375.32 6.746.582 10.117.902.621.058 1.223.265 1.824.433 3.153.88 3.973 4.141 2.942 6.809-.383 1.004-1.172 1.715-2.184 1.984-1.629.438-3.285.922-4.95 1.043-5.284.391-10.546.028-15.76-.925-.376-.067-.74-.188-1.29-.332Zm0 0"/></clipPath><clipPath id="h"><path d="M114.172 9.004h24.691v18.883h-24.691Zm0 0"/></clipPath><clipPath id="i"><path d="M114.586 26.46c.152-.964.297-1.866.457-2.878 1.512.23 2.86.516 4.219.625 3.554.29 7.105.57 10.668.719 1.21.047 2.457-.246 3.656-.508.996-.211 1.5-.918 1.52-1.813.015-.96-.504-1.824-1.438-2.07-.91-.242-1.871-.363-2.813-.433-3.128-.243-6.265-.387-9.39-.68a24.026 24.026 0 0 1-4.324-.836c-1.704-.488-2.735-1.672-2.88-3.5-.148-1.883.25-3.547 2.094-4.465.844-.414 1.739-.805 2.657-.992 4.527-.914 9.082-.707 13.633-.14 1.636.202 3.273.448 5.109.698l-.484 2.876c-.711-.11-1.266-.2-1.82-.274-5.009-.707-10.032-1.066-15.079-.523-.422.046-.855.117-1.25.257-.797.286-1.234.856-1.223 1.735.012.844.332 1.578 1.176 1.742 1.531.3 3.09.504 4.645.656 3.453.336 6.922.54 10.367.946 1.96.234 3.644 1.085 4.379 3.164 1.062 3.004-.453 5.71-3.574 6.375-3.953.832-7.95.808-11.938.46-2.508-.222-5-.617-7.5-.937-.226-.031-.45-.105-.855-.2Zm0 0"/></clipPath><clipPath id="j"><path d="M169.938 1.613h32.746v18.93h-32.746Zm0 0"/></clipPath><clipPath id="k"><path d="M186.313 17c.582-.727 1.046-1.262 1.472-1.836 3.035-4.043 6.094-8.074 9.055-12.16.75-1.035 1.547-1.492 2.808-1.371.942.097 1.899.02 3 .02v18.702h-3.746c-.18-4.3.012-8.683-.101-13.062l-.336-.117c-.305.347-.633.68-.914 1.047-2.774 3.68-5.567 7.34-8.285 11.058-.672.926-1.403 1.371-2.52 1.211a2.525 2.525 0 0 0-.84 0c-1.289.238-2.05-.375-2.789-1.383-2.71-3.726-5.492-7.394-8.258-11.074-.226-.305-.504-.57-1.09-.8v13.132h-3.832V1.691c1.5 0 2.942-.078 4.372.047.441.04.918.582 1.234.996 3.086 4.075 6.137 8.172 9.21 12.262.458.613.946 1.215 1.552 1.996Zm0 0"/></clipPath><clipPath id="l"><path d="M2.7 0h45.698v27.828H2.7Zm0 0"/></clipPath><clipPath id="m"><path d="M48.195 27.75c-2.164 0-4.328.043-6.488-.043-.36-.012-.781-.496-1.039-.863a103.768 103.768 0 0 1-2.656-3.985c-.532-.84-1.219-1.18-2.242-1.175-6.817.043-13.63.043-20.446 0-1.152-.004-1.906.406-2.476 1.375-.649 1.097-1.47 2.101-2.047 3.226-.625 1.227-1.508 1.633-2.832 1.527-1.27-.097-2.555-.011-3.828-.03-.399 0-.797-.098-1.442-.177.434-.707.742-1.246 1.09-1.761l14.063-20.73c.953-1.41 1.918-2.813 2.816-4.255.387-.62.852-.863 1.562-.859 2.13.023 4.262.05 6.387 0 .98-.023 1.531.398 2.059 1.184 4.863 7.246 9.758 14.468 14.644 21.703l3.02 4.48-.153.39ZM34 17.527c-.516-1.906-7.559-12.445-8.605-13.047-1.274 1.29-8.141 11.88-8.36 13.075 5.664.097 11.277.144 16.965-.032Zm0 0"/></clipPath><clipPath id="n"><path d="M205.277 1.613h26.985v19.215h-26.985Zm0 0"/></clipPath><clipPath id="o"><path d="M217.559 5.29c1.523 0 3.046.007 4.566.038 4.55.078 6.27 2.035 5.977 6.602-.211 3.238-1.465 4.629-4.672 5.09-.79.113-1.594.132-2.39.132h-11.688V5.457c.515-.059.898-.144 1.285-.144 2.308-.004 4.617-.024 6.922-.024Zm-2.29-3.677c-2.87 0-5.742.012-8.613.012-.437 0-.87.09-1.379.14V20.7h.004c.383.059.602.117.828.117 2.809 0 5.618.012 8.426.012 2.809 0 5.617-.012 8.422-.05 1.352-.02 2.734-.317 4.043-.708 2.617-.777 4.402-2.543 4.848-5.265.199-1.254.34-2.54.355-3.817v-.511a16.502 16.502 0 0 0-.101-1.641c-.426-3.879-2.399-5.91-6.23-6.793-1.22-.285-2.493-.39-3.747-.402-2.285-.02-4.57-.028-6.855-.028Zm0 0"/></clipPath></defs><g clip-path="url(#a)"><path fill="#03045e" d="M106.781 8.633h3.813v18.762h-3.813Zm0 0"/></g><g clip-path="url(#b)"><g clip-path="url(#c)"><path fill="#03045e" d="M139.89 9.004h26.528v18.39h-26.527Zm0 0"/></g></g><g clip-path="url(#d)"><g clip-path="url(#e)"><path fill="#03045e" d="M50.477 9.004h24.996v19.195H50.477Zm0 0"/></g></g><g clip-path="url(#f)"><g clip-path="url(#g)"><path fill="#03045e" d="M78.113 8.633h25.028v19.125H78.113Zm0 0"/></g></g><g clip-path="url(#h)"><g clip-path="url(#i)"><path fill="#03045e" d="M114.234 9.004h24.567v18.824h-24.567Zm0 0"/></g></g><g clip-path="url(#j)"><g clip-path="url(#k)"><path fill="#6ec6d9" d="M169.938 1.613h32.675v18.93h-32.675Zm0 0"/></g></g><g clip-path="url(#l)"><g clip-path="url(#m)"><path fill="#03045e" d="M2.7 0h45.632v27.828H2.699Zm0 0"/></g></g><g clip-path="url(#n)"><g clip-path="url(#o)"><path fill="#6ec6d9" d="M205.277 1.613h26.914v19.215h-26.914Zm0 0"/></g></g></svg>